<svg xmlns="http://www.w3.org/2000/svg" width="86.08015567546572" height="86.08015567546572" viewBox="0 0 74.24162610704504 74.24162610704504" class="looka-1j8o68f">
  <defs id="SvgjsDefs1824"></defs>
  <g id="SvgjsG1825" featurekey="odWo6G-0"
    transform="matrix(1.1600254079225787,0,0,1.1600254079225787,-4.440863039652847,-2.3200508158451574)" fill="#f25d9c">
    <g xmlns="http://www.w3.org/2000/svg">
      <path
        d="M18.8744164,31.0454273h0.2046204c0.3150749-0.4709244,1.3509541-1.8317566,2.1998177-2.6811371   c3.0283947-3.0283947,7.0253716-4.9000435,11.6497421-5.0949669v-3.6864986   c-4.3175144-0.0754681-8.4923744-0.5977497-12.3196354-1.5187054   C19.574379,21.9678268,18.9564724,26.3722248,18.8744164,31.0454273z">
      </path>
      <path
        d="M32.9285965,17.4319286V2.004566c-4.9340515,0.702246-9.2205162,6.1203537-11.7254066,14.0040188   C24.837244,16.8747501,28.8107452,17.3575687,32.9285965,17.4319286z">
      </path>
      <path
        d="M18.5286407,17.5177689c-3.1995687-0.9234352-6.1027422-2.14007-8.583889-3.61129   c-3.7921667,4.987669-5.8841629,10.8704605-6.0988941,17.1389484h12.8924675   C16.8194046,26.1621895,17.4521809,21.5852642,18.5286407,17.5177689z">
      </path>
      <path
        d="M46.079628,28.3642902c0.7355728,0.7355766,1.5598907,1.7308922,2.1936874,2.6811371h0.8693581   c-0.0821228-4.6756172-0.6987877-9.082819-1.7336311-12.9874401c-3.8314362,0.9212818-8.0143204,1.4452591-12.3430519,1.5239906   v3.7181988C39.3393021,23.631649,43.2165985,25.5012608,46.079628,28.3642902z">
      </path>
      <path
        d="M20.4406738,52.2571526c-0.7501183-0.865303-1.6525135-2.1304054-2.2320423-3.2103958   c-2.5669212,0.8021736-4.866539,1.7843132-6.8644753,2.9282188c3.955862,4.5182343,9.1862526,7.8746986,15.2806644,9.428463   C24.2333622,59.3148346,22.1106434,56.2140884,20.4406738,52.2571526z">
      </path>
      <path
        d="M26.5299129,2.8586628c-5.980072,1.5172279-11.223505,4.7785139-15.2357874,9.3687801   c2.2695475,1.3123236,4.9230928,2.392436,7.8286791,3.2315311C20.852459,9.9768763,23.4239464,5.5836978,26.5299129,2.8586628z">
      </path>
      <path
        d="M48.3995972,50.3007011l1.2660103,1.2660141c0.492363-0.4246826,0.7230377-0.9514542,1.3890991-0.9538956   c0.1139145,0.023037,0.4382057-0.0063896,0.7576904,0.3130951l3.0325203,3.0319977   c0.0975151-0.0929527,0.1971817-0.183815,0.2932663-0.2779388c0.4297218-0.4206619,0.9600182-0.9701958,1.5715408-1.67062   c-2.1472473-1.2384224-4.7064056-2.2938118-7.4827766-3.1192093   C49.1497078,49.0383644,48.4420357,50.2352257,48.3995972,50.3007011z">
      </path>
      <path
        d="M64.1717529,33.1828232H51.2675438c-0.028698,1.6514435-0.1071701,3.3234367-0.2668457,4.9977112   c0.434288,2.9290695,0.1320877,5.9408455-0.9141083,8.7436333c2.9916878,0.9054337,5.6606255,2.0525322,7.9652672,3.4235649   C61.8592224,45.3669128,63.9572182,39.4768143,64.1717529,33.1828232z">
      </path>
      <path
        d="M51.2797432,31.0454273h12.8919487c-0.2149315-6.2723351-2.3099251-12.1547375-6.1069221-17.1362724   c-2.4759254,1.4671755-5.3765564,2.6813326-8.5762558,3.6036577   C50.5656891,21.5812836,51.1986008,26.1597767,51.2797432,31.0454273z">
      </path>
      <path
        d="M48.8936996,15.4531031c2.9056511-0.837986,5.5567818-1.9154234,7.8215675-3.2233124   c-3.9813957-4.5625911-9.2018204-7.8396344-15.2272415-9.3683882C44.5941238,5.5854592,47.1644363,9.9755068,48.8936996,15.4531031   z">
      </path>
      <path
        d="M35.0659904,2v15.4314709c4.1273727-0.0777512,8.1076584-0.5622654,11.744648-1.4281044   C44.3008575,8.1065912,40.0068893,2.6830688,35.0659904,2z">
      </path>
      <path
        d="M16.8430157,35.86409c-0.0545959-0.9058876-0.0850563-1.7993851-0.1009731-2.6812668H3.8282464   c0.2296679,6.3712845,2.4983017,12.302021,6.1677094,17.129425c2.1372652-1.2594261,4.5942125-2.3337975,7.3353586-3.2077255   C15.9325495,43.4906158,15.7634363,39.5872688,16.8430157,35.86409z">
      </path>
      <path
        d="M43.2125893,55.4936409c-2.4474411,1.5919952-5.3634644,2.5411911-8.1465988,2.7547798v3.9896774   c3.8837471-0.5511131,6.7439346-4.0205307,8.3403931-6.5516434C43.3391991,55.6195984,43.2746887,55.5554123,43.2125893,55.4936409   z">
      </path>
      <path
        d="M51.0604477,53.1968956c-0.1071625,0.1072502-5.0590134,5.0632896-4.9518585,4.9560318l6.8554726,6.8549538   c1.3223076,1.3223038,3.6292953,1.323349,4.9536858,0c1.3688126-1.3688164,1.369236-3.5839272,0-4.9531631L51.0604477,53.1968956z">
      </path>
      <path
        d="M47.1196251,52.0488815c-0.671463,0.8037987-1.512886,1.6239853-2.158268,2.1666145   c0.0512047,0.0508156,0.7710609,0.7724991,1.0279961,1.0300827l2.1655731-2.1660957   C47.8304787,52.7564087,47.4537239,52.3813477,47.1196251,52.0488815z">
      </path>
      <path
        d="M45.4446297,50.6953964c5.3661461-6.4826813,4.5249252-15.4166832-0.8730774-20.814682   c-5.8421059-5.8410587-15.6123734-6.1680107-21.7814922,0c-6.0296593,6.0296555-5.9903049,15.7906685,0,21.7809715   C29.1338596,58.0043449,39.5859451,57.6339417,45.4446297,50.6953964z M24.5501747,49.9062691   c-5.0920219-5.098732-4.9893799-13.2817993,0-18.2711792c5.0242538-5.0231762,13.2154312-5.042141,18.2586555,0   c8.0786591,8.0795784,0.8239822,17.9675102,1.0874825,17.0313225   C38.4598122,55.2968903,29.6414051,54.9985886,24.5501747,49.9062691z">
      </path>
      <path
        d="M43.7996445,58.8487816c-0.7608223,0.9732666-1.5629959,1.8194084-2.3949814,2.5479393   c2.3201027-0.5847778,3.2024307-1.0205307,3.7296791-1.1935425C44.7959938,59.8604126,44.0231895,59.1064453,43.7996445,58.8487816   z">
      </path>
      <path
        d="M42.9341965,46.2719536c2.4875412-4.1771431,1.8794823-9.6091461-1.6365738-13.1256599   c-4.1924629-4.1903057-11.0305462-4.2046127-15.2362423,0c-3.518013,3.518013-4.1253529,8.9532127-1.637291,13.1261787   c0.0448112-0.0461807,0.0810776-0.0987549,0.1266079-0.1442184c2.4306602-2.4369202,5.6732788-3.780098,9.1288033-3.780098   C37.0832787,42.348156,40.372673,43.6382179,42.9341965,46.2719536z M29.0008202,36.168705   c0-2.5757294,2.0956478-4.6713772,4.6718979-4.6713772c2.5835533,0,4.6854668,2.0956478,4.6854668,4.6713772   c0,2.5840759-2.1019135,4.6859856-4.6854668,4.6859856C31.096468,40.8546906,29.0008202,38.7527809,29.0008202,36.168705z">
      </path>
      <path
        d="M33.672718,33.6347237c-1.3974457,0-2.5345039,1.1365318-2.5345039,2.5339813   c0,1.4057961,1.1370583,2.5485916,2.5345039,2.5485916c1.4052734,0,2.5480728-1.1427956,2.5480728-2.5485916   C36.2207909,34.7712555,35.0779915,33.6347237,33.672718,33.6347237z">
      </path>
      <path
        d="M24.6983738,55.8467216c2.3664093,3.7047615,5.22999,5.9294968,8.2302227,6.3730469v-3.9413414   C29.9376984,58.1578789,27.0976906,57.2807884,24.6983738,55.8467216z">
      </path>
      <path
        d="M33.6795006,44.4855499c-2.883604,0-5.5887432,1.1208801-7.6170769,3.1539116   c-0.1185856,0.1181259-0.2334518,0.2393837-0.3453178,0.362339c0.1174755,0.1298065,0.2196884,0.2681541,0.3447952,0.393261   c2.0304203,2.0309448,4.7350407,3.1497345,7.6155128,3.1497345c2.9084244,0,5.7797852-1.1276398,7.9648094-3.5426674   c-0.1114731-0.1229553-0.2264061-0.2433662-0.3440781-0.3605804   C39.2682457,45.6064301,36.5625839,44.4855499,33.6795006,44.4855499z">
      </path>
    </g>
  </g>
</svg>
