<svg version="1.2" xmlns="http://www.w3.org/2000/svg" viewBox="0 0 371 75" width="429" height="87">
	<title>logo-secondary-primary-svg</title>
	<style>
		.s0 { fill: #f25d9c } 
		.s1 { fill: #ffffff } 
	</style>
	<g id="SvgjsG1825">
		<g id="Layer">
			<path id="Layer" class="s0" d="m18.5 33.7h0.2c0.4-0.6 1.6-2.1 2.5-3.1 3.6-3.5 8.2-5.7 13.6-5.9v-4.3c-5.1-0.1-9.9-0.7-14.3-1.8-1.2 4.6-2 9.7-2 15.1z"/>
			<path id="Layer" class="s0" d="m34.8 17.9v-17.9c-5.8 0.8-10.7 7.1-13.6 16.3 4.2 1 8.8 1.5 13.6 1.6z"/>
			<path id="Layer" class="s0" d="m18.1 18c-3.8-1.1-7.1-2.5-10-4.2-4.4 5.8-6.8 12.6-7.1 19.9h15c0.1-5.7 0.8-11 2.1-15.7z"/>
			<path id="Layer" class="s0" d="m50 30.6c0.9 0.8 1.8 2 2.6 3.1h1c-0.1-5.4-0.8-10.5-2-15.1-4.5 1.1-9.3 1.7-14.4 1.8v4.3c5 0.4 9.5 2.6 12.8 5.9z"/>
			<path id="Layer" class="s0" d="m20.3 58.3c-0.9-1-1.9-2.5-2.6-3.7q-4.5 1.4-8 3.4c4.6 5.2 10.7 9.1 17.7 10.9-2.7-2.4-5.2-6-7.1-10.6z"/>
			<path id="Layer" class="s0" d="m27.3 1c-6.9 1.8-13 5.5-17.6 10.9 2.6 1.5 5.7 2.7 9 3.7 2-6.3 5-11.4 8.6-14.6z"/>
			<path id="Layer" class="s0" d="m52.7 56l1.5 1.5c0.5-0.5 0.8-1.1 1.6-1.1 0.1 0 0.5 0 0.9 0.4l3.5 3.5q0.2-0.2 0.3-0.3 0.8-0.8 1.8-2c-2.4-1.4-5.4-2.6-8.6-3.6-0.1 0.2-0.9 1.6-1 1.6z"/>
			<path id="Layer" class="s0" d="m71 36.2h-15q0 2.9-0.3 5.8c0.5 3.4 0.2 6.9-1 10.1q5.2 1.6 9.2 4c4.4-5.8 6.9-12.6 7.1-19.9z"/>
			<path id="Layer" class="s0" d="m56 33.7h15c-0.2-7.3-2.7-14.1-7.1-19.9-2.9 1.7-6.2 3.1-9.9 4.2 1.2 4.7 2 10 2 15.7z"/>
			<path id="Layer" class="s0" d="m53.3 15.6c3.3-1 6.4-2.2 9.1-3.7-4.7-5.3-10.7-9.1-17.7-10.9 3.6 3.2 6.6 8.3 8.6 14.6z"/>
			<path id="Layer" class="s0" d="m37.2 0v17.9c4.8-0.1 9.4-0.7 13.7-1.7-3-9.1-7.9-15.4-13.7-16.2z"/>
			<path id="Layer" class="s0" d="m16.1 39.3q-0.1-1.6-0.1-3.1h-15c0.3 7.4 2.9 14.2 7.2 19.8q3.7-2.2 8.5-3.7c-1.7-4.2-1.9-8.7-0.6-13z"/>
			<path id="Layer" class="s0" d="m46.7 62.1c-2.9 1.8-6.2 2.9-9.5 3.1v4.7c4.5-0.7 7.9-4.7 9.7-7.6q-0.1-0.1-0.2-0.2z"/>
			<path id="Layer" class="s0" d="m55.8 59.4c-0.1 0.1-5.9 5.9-5.8 5.7l8 8c1.5 1.5 4.2 1.5 5.7 0 1.6-1.6 1.6-4.2 0-5.8z"/>
			<path id="Layer" class="s0" d="m51.2 58.1c-0.8 0.9-1.7 1.8-2.5 2.5 0.1 0 0.9 0.9 1.2 1.2l2.5-2.5c-0.4-0.4-0.8-0.9-1.2-1.2z"/>
			<path id="Layer" class="s0" d="m49.3 56.5c6.2-7.5 5.2-17.9-1-24.2-6.8-6.7-18.1-7.1-25.3 0-7 7-7 18.4 0 25.3 7.4 7.4 19.5 6.9 26.3-1.1zm-24.3-0.9c-5.9-5.9-5.7-15.4 0-21.2 5.9-5.8 15.4-5.9 21.2 0 9.4 9.3 1 20.8 1.3 19.7-6.3 7.7-16.6 7.4-22.5 1.5z"/>
			<path id="Layer" class="s0" d="m47.4 65.9q-1.4 1.7-2.8 3c2.7-0.7 3.7-1.2 4.3-1.4-0.4-0.4-1.3-1.3-1.5-1.6z"/>
			<path id="Layer" class="s0" d="m46.4 51.4c2.8-4.9 2.1-11.2-1.9-15.3-4.9-4.8-12.8-4.8-17.7 0-4.1 4.1-4.8 10.4-1.9 15.3q0.1-0.1 0.1-0.2c2.9-2.8 6.6-4.4 10.6-4.4 4 0 7.8 1.5 10.8 4.6zm-16.2-11.8c0-3 2.4-5.4 5.4-5.4 3 0 5.5 2.4 5.5 5.4 0 3-2.5 5.5-5.5 5.5-3 0-5.4-2.5-5.4-5.5z"/>
			<path id="Layer" class="s0" d="m35.6 36.7c-1.6 0-2.9 1.3-2.9 2.9 0 1.7 1.3 3 2.9 3 1.7 0 3-1.3 3-3 0-1.6-1.3-2.9-3-2.9z"/>
			<path id="Layer" class="s0" d="m25.2 62.5c2.8 4.3 6.1 6.8 9.6 7.4v-4.6c-3.5-0.2-6.8-1.2-9.6-2.8z"/>
			<path id="Layer" class="s0" d="m35.6 49.3c-3.3 0-6.5 1.3-8.8 3.6q-0.2 0.2-0.4 0.5 0.2 0.2 0.4 0.4c2.3 2.4 5.5 3.7 8.8 3.7 3.4 0 6.7-1.3 9.3-4.1q-0.2-0.3-0.4-0.5c-2.4-2.3-5.5-3.6-8.9-3.6z"/>
		</g>
	</g>
	<g id="SvgjsG1826">
		<path id="GetJobs.Tech" class="s1" aria-label="GetJobs.Tech"  d="m100.8 36.7h6.4v18.9q-4.5 0.8-8.8 0.8-10.3 0-15.4-4.8-5.2-4.9-5.2-15.4 0-10.4 5.2-15.4 5.1-5 14.9-5 4.4 0 8.4 1.1v5.8q-4-1.1-7.8-1.1-4.6 0-7.6 1.5-2.9 1.4-4.4 4.6-1.5 3.2-1.5 8.6 0 5.1 1.4 8.3 1.5 3.2 4.3 4.6 2.8 1.4 7.1 1.4 1.4 0 3-0.1zm35 4.8v2h-16.6q0.1 2.9 0.9 4.5 0.9 1.7 2.7 2.5 1.8 0.7 4.7 0.7 3.1 0 6.9-1v5.3q-3.9 1-7.8 1-4.9 0-8.1-1.5-3.1-1.6-4.6-4.9-1.6-3.4-1.6-8.8 0-7.4 3.2-11.2 3.2-3.8 9-3.8 5.5 0 8.4 3.8 2.9 3.8 2.9 11.4zm-11.4-10.7q-1.7 0-2.8 0.8-1.2 0.8-1.8 2.7-0.6 1.8-0.7 5h10.4q-0.1-3.2-0.7-5.1-0.6-1.8-1.6-2.6-1.1-0.8-2.8-0.8zm29.2 20q1.2 0 3.1-0.4v5.6q-2.4 0.5-4.8 0.5-4.8 0-7.4-2.5-2.5-2.5-2.5-7.8v-14.1h-4.7v-5.3h4.7l1.2-10.5h5.6v10.5h7.6v5.3h-7.6v13.1q0 2.1 0.5 3.3 0.5 1.2 1.5 1.8 1.1 0.5 2.8 0.5zm7.5 14.5l-4.5-3q2.4-3.3 3.3-6.5 1-3.2 1-7.7v-31.8h6.8v31.9q0 5-1.5 9-1.6 4-5.1 8.1zm24.8-8.8q-6.1 0-9.4-3.7-3.3-3.7-3.3-11.3 0-7.7 3.3-11.5 3.2-3.7 9.4-3.7 6 0 9.3 3.8 3.3 3.7 3.3 11.3 0 7.7-3.3 11.4-3.3 3.7-9.3 3.7zm0-5.1q1.9 0 3.1-0.9 1.3-0.9 1.9-3.1 0.7-2.1 0.7-5.9 0-3.8-0.7-6-0.7-2.2-1.9-3.1-1.2-0.9-3.1-0.9-2 0-3.2 0.9-1.3 0.9-2 3-0.6 2.2-0.6 6 0 3.8 0.6 6 0.7 2.2 2 3.1 1.2 0.9 3.2 0.9zm27.1 5.1q-2.5 0-5-0.4-2.5-0.3-4.6-1v-42.4h6.7v17h0.4q1.1-1.6 2.9-2.5 1.8-0.9 4.1-0.9 3 0 5.3 1.5 2.4 1.5 3.8 4.8 1.4 3.2 1.4 8.3 0 7.8-3.8 11.7-3.7 3.9-11.2 3.9zm0.5-5.2q3.8 0 5.7-2.3 1.9-2.3 1.9-7.6 0-3.6-0.8-5.7-0.7-2.1-2.1-2.9-1.3-0.8-3.3-0.8-1.4 0-2.6 0.6-1.3 0.5-2.2 1.6v16.6q1.5 0.5 3.4 0.5zm26.8 5.2q-4.5 0-8.1-1.2v-5.2q3.9 1.2 8 1.2 5.5 0 5.5-3.6 0-1.4-0.7-2.2-0.8-0.8-2.4-1.1l-4-0.9q-3.7-0.8-5.4-2.9-1.8-2-1.8-5.3 0-2.7 1.4-4.7 1.4-2.1 4.1-3.2 2.7-1.1 6.7-1.1 3.6 0 6.8 0.8v5.3q-3-0.8-6.6-0.8-3.2 0-4.7 1-1.4 0.9-1.4 2.6 0 1.3 0.7 2 0.7 0.8 2.3 1.2l4 0.8q3.7 0.9 5.5 2.8 1.7 2 1.7 5.5 0 2.8-1.4 4.8-1.3 2.1-4 3.2-2.6 1-6.2 1zm19.5-0.1q-2 0-3.3-1.2-1.2-1.2-1.2-3.1 0-2 1.2-3.2 1.3-1.2 3.3-1.2 2.1 0 3.3 1.2 1.2 1.2 1.2 3.2 0 1.9-1.2 3.1-1.3 1.2-3.3 1.2zm22.9-0.4h-6.9v-33.7h-12v-6h30.8v6h-11.9zm34.1-14.5v1.9h-16.6q0.1 2.9 0.9 4.6 0.9 1.7 2.7 2.4 1.8 0.8 4.7 0.8 3.1 0 6.9-1.1v5.4q-3.9 1-7.8 1-4.9 0-8-1.5-3.2-1.6-4.7-4.9-1.6-3.4-1.6-8.8 0-7.4 3.2-11.2 3.2-3.8 9-3.8 5.6 0 8.4 3.8 2.9 3.8 2.9 11.4zm-11.4-10.7q-1.7 0-2.8 0.8-1.1 0.8-1.8 2.6-0.6 1.9-0.7 5.1h10.4q-0.1-3.2-0.7-5.1-0.5-1.8-1.6-2.6-1.1-0.8-2.8-0.8zm28.2 25.7q-6.5 0-9.9-3.7-3.4-3.7-3.4-11.4 0-7.8 3.6-11.4 3.7-3.7 10.7-3.7 3.2 0 5.8 0.6v5.5q-2.4-0.5-4.7-0.5-3 0-4.8 0.9-1.8 0.9-2.7 3-0.9 2-0.9 5.5 0 3.5 0.8 5.7 0.9 2.1 2.5 3 1.7 0.9 4.3 0.9 2.2 0 5.5-1v5.5q-3.2 1.1-6.8 1.1zm11.2-0.5v-43.3h6.8v17.2h0.3q3-3.6 7.9-3.6 3.8 0 6.2 2.5 2.3 2.5 2.3 8v19.2h-6.7v-18.7q0-2.7-1.1-3.9-1.1-1.1-3.2-1.1-1.6 0-3.2 0.7-1.5 0.7-2.5 2.1v20.9z"/>
	</g>
</svg>